<svg width="1281" height="475" viewBox="0 0 1281 475" fill="none" xmlns="http://www.w3.org/2000/svg">
<path d="M674.391 0.5H640.991M674.391 0.5V35.5M674.391 0.5H707.791M640.991 0.5V35.5M640.991 0.5H606.609M640.991 35.5H674.391M640.991 35.5V69.5M640.991 35.5H606.609M674.391 35.5H707.791M674.391 35.5V69.5M707.791 0.5V35.5M707.791 0.5H742.173M707.791 35.5H742.173M707.791 35.5V69.5M742.173 0.5V35.5M742.173 0.5H775.573M742.173 35.5H775.573M742.173 35.5V69.5M775.573 0.5V35.5M775.573 0.5H808.973M775.573 35.5H808.973M775.573 35.5V69.5M808.973 0.5V35.5M808.973 0.5H842.373M808.973 35.5H842.373M808.973 35.5V69.5M842.373 0.5V35.5M842.373 0.5H876.755M842.373 35.5H876.755M842.373 35.5V69.5M876.755 0.5V35.5M876.755 0.5H910.155M876.755 35.5H910.155M876.755 35.5V69.5M910.155 0.5V35.5M910.155 0.5H943.555M910.155 35.5H943.555M910.155 35.5V69.5M943.555 0.5V35.5M943.555 0.5H977.937M943.555 35.5H977.937M943.555 35.5V69.5M977.937 0.5V35.5M977.937 0.5H1011.34M977.937 35.5H1011.34M977.937 35.5V69.5M1011.34 0.5V35.5M1011.34 0.5H1044.74M1011.34 35.5H1044.74M1011.34 35.5V69.5M1044.74 0.5V35.5M1044.74 0.5H1078.14M1044.74 35.5H1078.14M1044.74 35.5V69.5M1078.14 0.5V35.5M1078.14 0.5H1112.52M1078.14 35.5H1112.52M1078.14 35.5V69.5M1112.52 0.5V35.5M1112.52 0.5H1145.92M1112.52 35.5H1145.92M1112.52 35.5V69.5M1145.92 0.5V35.5M1145.92 0.5H1179.32M1145.92 35.5H1179.32M1145.92 35.5V69.5M1179.32 0.5V35.5M1179.32 0.5H1212.72M1179.32 35.5H1212.72M1179.32 35.5V69.5M1212.72 0.5V35.5M1212.72 0.5H1247.1M1212.72 35.5H1247.1M1212.72 35.5V69.5M1247.1 0.5V35.5M1247.1 0.5H1280.5V35.5M1247.1 35.5H1280.5M1247.1 35.5V69.5M1280.5 35.5V69.5M640.991 69.5H674.391M640.991 69.5V103.5M640.991 69.5H606.609M674.391 69.5H707.791M674.391 69.5V103.5M707.791 69.5H742.173M707.791 69.5V103.5M742.173 69.5H775.573M742.173 69.5V103.5M775.573 69.5H808.973M775.573 69.5V103.5M808.973 69.5H842.373M808.973 69.5V103.5M842.373 69.5H876.755M842.373 69.5V103.5M876.755 69.5H910.155M876.755 69.5V103.5M910.155 69.5H943.555M910.155 69.5V103.5M943.555 69.5H977.937M943.555 69.5V103.5M977.937 69.5H1011.34M977.937 69.5V103.5M1011.34 69.5H1044.74M1011.34 69.5V103.5M1044.74 69.5H1078.14M1044.74 69.5V103.5M1078.14 69.5H1112.52M1078.14 69.5V103.5M1112.52 69.5H1145.92M1112.52 69.5V103.5M1145.92 69.5H1179.32M1145.92 69.5V103.5M1179.32 69.5H1212.72M1179.32 69.5V103.5M1212.72 69.5H1247.1M1212.72 69.5V103.5M1247.1 69.5H1280.5M1247.1 69.5V103.5M1280.5 69.5V103.5M640.991 103.5H674.391M640.991 103.5V138.5M640.991 103.5H606.609M674.391 103.5H707.791M674.391 103.5V138.5M707.791 103.5H742.173M707.791 103.5V138.5M742.173 103.5H775.573M742.173 103.5V138.5M775.573 103.5H808.973M775.573 103.5V138.5M808.973 103.5H842.373M808.973 103.5V138.5M842.373 103.5H876.755M842.373 103.5V138.5M876.755 103.5H910.155M876.755 103.5V138.5M910.155 103.5H943.555M910.155 103.5V138.5M943.555 103.5H977.937M943.555 103.5V138.5M977.937 103.5H1011.34M977.937 103.5V138.5M1011.34 103.5H1044.74M1011.34 103.5V138.5M1044.74 103.5H1078.14M1044.74 103.5V138.5M1078.14 103.5H1112.52M1078.14 103.5V138.5M1112.52 103.5H1145.92M1112.52 103.5V138.5M1145.92 103.5H1179.32M1145.92 103.5V138.5M1179.32 103.5H1212.72M1179.32 103.5V138.5M1212.72 103.5H1247.1M1212.72 103.5V138.5M1247.1 103.5H1280.5M1247.1 103.5V138.5M1280.5 103.5V138.5M640.991 138.5H674.391M640.991 138.5V172.5M640.991 138.5H606.609M674.391 138.5H707.791M674.391 138.5V172.5M707.791 138.5H742.173M707.791 138.5V172.5M742.173 138.5H775.573M742.173 138.5V172.5M775.573 138.5H808.973M775.573 138.5V172.5M808.973 138.5H842.373M808.973 138.5V172.5M842.373 138.5H876.755M842.373 138.5V172.5M876.755 138.5H910.155M876.755 138.5V172.5M910.155 138.5H943.555M910.155 138.5V172.5M943.555 138.5H977.937M943.555 138.5V172.5M977.937 138.5H1011.34M977.937 138.5V172.5M1011.34 138.5H1044.74M1011.34 138.5V172.5M1044.74 138.5H1078.14M1044.74 138.5V172.5M1078.14 138.5H1112.52M1078.14 138.5V172.5M1112.52 138.5H1145.92M1112.52 138.5V172.5M1145.92 138.5H1179.32M1145.92 138.5V172.5M1179.32 138.5H1212.72M1179.32 138.5V172.5M1212.72 138.5H1247.1M1212.72 138.5V172.5M1247.1 138.5H1280.5M1247.1 138.5V172.5M1280.5 138.5V172.5M640.991 172.5H674.391M640.991 172.5V206.5M640.991 172.5H606.609M674.391 172.5H707.791M674.391 172.5V206.5M707.791 172.5H742.173M707.791 172.5V206.5M742.173 172.5H775.573M742.173 172.5V206.5M775.573 172.5H808.973M775.573 172.5V206.5M808.973 172.5H842.373M808.973 172.5V206.5M842.373 172.5H876.755M842.373 172.5V206.5M876.755 172.5H910.155M876.755 172.5V206.5M910.155 172.5H943.555M910.155 172.5V206.5M943.555 172.5H977.937M943.555 172.5V206.5M977.937 172.5H1011.34M977.937 172.5V206.5M1011.34 172.5H1044.74M1011.34 172.5V206.5M1044.74 172.5H1078.14M1044.74 172.5V206.5M1078.14 172.5H1112.52M1078.14 172.5V206.5M1112.52 172.5H1145.92M1112.52 172.5V206.5M1145.92 172.5H1179.32M1145.92 172.5V206.5M1179.32 172.5H1212.72M1179.32 172.5V206.5M1212.72 172.5H1247.1M1212.72 172.5V206.5M1247.1 172.5H1280.5M1247.1 172.5V206.5M1280.5 172.5V206.5M640.991 206.5H674.391M640.991 206.5V241.5M640.991 206.5H606.609M674.391 206.5H707.791M674.391 206.5V241.5M707.791 206.5H742.173M707.791 206.5V241.5M742.173 206.5H775.573M742.173 206.5V241.5M775.573 206.5H808.973M775.573 206.5V241.5M808.973 206.5H842.373M808.973 206.5V241.5M842.373 206.5H876.755M842.373 206.5V241.5M876.755 206.5H910.155M876.755 206.5V241.5M910.155 206.5H943.555M910.155 206.5V241.5M943.555 206.5H977.937M943.555 206.5V241.5M977.937 206.5H1011.34M977.937 206.5V241.5M1011.34 206.5H1044.74M1011.34 206.5V241.5M1044.74 206.5H1078.14M1044.74 206.5V241.5M1078.14 206.5H1112.52M1078.14 206.5V241.5M1112.52 206.5H1145.92M1112.52 206.5V241.5M1145.92 206.5H1179.32M1145.92 206.5V241.5M1179.32 206.5H1212.72M1179.32 206.5V241.5M1212.72 206.5H1247.1M1212.72 206.5V241.5M1247.1 206.5H1280.5M1247.1 206.5V241.5M1280.5 206.5V241.5M640.991 241.5H674.391M640.991 241.5V275.5M640.991 241.5H606.609M674.391 241.5H707.791M674.391 241.5V275.5M707.791 241.5H742.173M707.791 241.5V275.5M742.173 241.5H775.573M742.173 241.5V275.5M775.573 241.5H808.973M775.573 241.5V275.5M808.973 241.5H842.373M808.973 241.5V275.5M842.373 241.5H876.755M842.373 241.5V275.5M876.755 241.5H910.155M876.755 241.5V275.5M910.155 241.5H943.555M910.155 241.5V275.5M943.555 241.5H977.937M943.555 241.5V275.5M977.937 241.5H1011.34M977.937 241.5V275.5M1011.34 241.5H1044.74M1011.34 241.5V275.5M1044.74 241.5H1078.14M1044.74 241.5V275.5M1078.14 241.5H1112.52M1078.14 241.5V275.5M1112.52 241.5H1145.92M1112.52 241.5V275.5M1145.92 241.5H1179.32M1145.92 241.5V275.5M1179.32 241.5H1212.72M1179.32 241.5V275.5M1212.72 241.5H1247.1M1212.72 241.5V275.5M1247.1 241.5H1280.5M1247.1 241.5V275.5M1280.5 241.5V275.5M640.991 275.5H674.391M640.991 275.5V309.5M640.991 275.5H606.609M674.391 275.5H707.791M674.391 275.5V309.5M707.791 275.5H742.173M707.791 275.5V309.5M742.173 275.5H775.573M742.173 275.5V309.5M775.573 275.5H808.973M775.573 275.5V309.5M808.973 275.5H842.373M808.973 275.5V309.5M842.373 275.5H876.755M842.373 275.5V309.5M876.755 275.5H910.155M876.755 275.5V309.5M910.155 275.5H943.555M910.155 275.5V309.5M943.555 275.5H977.937M943.555 275.5V309.5M977.937 275.5H1011.34M977.937 275.5V309.5M1011.34 275.5H1044.74M1011.34 275.5V309.5M1044.74 275.5H1078.14M1044.74 275.5V309.5M1078.14 275.5H1112.52M1078.14 275.5V309.5M1112.52 275.5H1145.92M1112.52 275.5V309.5M1145.92 275.5H1179.32M1145.92 275.5V309.5M1179.32 275.5H1212.72M1179.32 275.5V309.5M1212.72 275.5H1247.1M1212.72 275.5V309.5M1247.1 275.5H1280.5M1247.1 275.5V309.5M1280.5 275.5V309.5M640.991 309.5H674.391M640.991 309.5V343.5M640.991 309.5H606.609M674.391 309.5H707.791M674.391 309.5V343.5M707.791 309.5H742.173M707.791 309.5V343.5M742.173 309.5H775.573M742.173 309.5V343.5M775.573 309.5H808.973M775.573 309.5V343.5M808.973 309.5H842.373M808.973 309.5V343.5M842.373 309.5H876.755M842.373 309.5V343.5M876.755 309.5H910.155M876.755 309.5V343.5M910.155 309.5H943.555M910.155 309.5V343.5M943.555 309.5H977.937M943.555 309.5V343.5M977.937 309.5H1011.34M977.937 309.5V343.5M1011.34 309.5H1044.74M1011.34 309.5V343.5M1044.74 309.5H1078.14M1044.74 309.5V343.5M1078.14 309.5H1112.52M1078.14 309.5V343.5M1112.52 309.5H1145.92M1112.52 309.5V343.5M1145.92 309.5H1179.32M1145.92 309.5V343.5M1179.32 309.5H1212.72M1179.32 309.5V343.5M1212.72 309.5H1247.1M1212.72 309.5V343.5M1247.1 309.5H1280.5M1247.1 309.5V343.5M1280.5 309.5V343.5M640.991 343.5H674.391M640.991 343.5V378.5M640.991 343.5H606.609M674.391 343.5H707.791M674.391 343.5V378.5M707.791 343.5H742.173M707.791 343.5V378.5M742.173 343.5H775.573M742.173 343.5V378.5M775.573 343.5H808.973M775.573 343.5V378.5M808.973 343.5H842.373M808.973 343.5V378.5M842.373 343.5H876.755M842.373 343.5V378.5M876.755 343.5H910.155M876.755 343.5V378.5M910.155 343.5H943.555M910.155 343.5V378.5M943.555 343.5H977.937M943.555 343.5V378.5M977.937 343.5H1011.34M977.937 343.5V378.5M1011.34 343.5H1044.74M1011.34 343.5V378.5M1044.74 343.5H1078.14M1044.74 343.5V378.5M1078.14 343.5H1112.52M1078.14 343.5V378.5M1112.52 343.5H1145.92M1112.52 343.5V378.5M1145.92 343.5H1179.32M1145.92 343.5V378.5M1179.32 343.5H1212.72M1179.32 343.5V378.5M1212.72 343.5H1247.1M1212.72 343.5V378.5M1247.1 343.5H1280.5M1247.1 343.5V378.5M1280.5 343.5V378.5M640.991 378.5H674.391M640.991 378.5V412.5M640.991 378.5H606.609M674.391 378.5H707.791M674.391 378.5V412.5M707.791 378.5H742.173M707.791 378.5V412.5M742.173 378.5H775.573M742.173 378.5V412.5M775.573 378.5H808.973M775.573 378.5V412.5M808.973 378.5H842.373M808.973 378.5V412.5M842.373 378.5H876.755M842.373 378.5V412.5M876.755 378.5H910.155M876.755 378.5V412.5M910.155 378.5H943.555M910.155 378.5V412.5M943.555 378.5H977.937M943.555 378.5V412.5M977.937 378.5H1011.34M977.937 378.5V412.5M1011.34 378.5H1044.74M1011.34 378.5V412.5M1044.74 378.5H1078.14M1044.74 378.5V412.5M1078.14 378.5H1112.52M1078.14 378.5V412.5M1112.52 378.5H1145.92M1112.52 378.5V412.5M1145.92 378.5H1179.32M1145.92 378.5V412.5M1179.32 378.5H1212.72M1179.32 378.5V412.5M1212.72 378.5H1247.1M1212.72 378.5V412.5M1247.1 378.5H1280.5M1247.1 378.5V412.5M1280.5 378.5V412.5M640.991 412.5H674.391M640.991 412.5V446.5M640.991 412.5H606.609M674.391 412.5H707.791M674.391 412.5V446.5M707.791 412.5H742.173M707.791 412.5V446.5M742.173 412.5H775.573M742.173 412.5V446.5M775.573 412.5H808.973M775.573 412.5V446.5M808.973 412.5H842.373M808.973 412.5V446.5M842.373 412.5H876.755M842.373 412.5V446.5M876.755 412.5H910.155M876.755 412.5V446.5M910.155 412.5H943.555M910.155 412.5V446.5M943.555 412.5H977.937M943.555 412.5V446.5M977.937 412.5H1011.34M977.937 412.5V446.5M1011.34 412.5H1044.74M1011.34 412.5V446.5M1044.74 412.5H1078.14M1044.74 412.5V446.5M1078.14 412.5H1112.52M1078.14 412.5V446.5M1112.52 412.5H1145.92M1112.52 412.5V446.5M1145.92 412.5H1179.32M1145.92 412.5V446.5M1179.32 412.5H1212.72M1179.32 412.5V446.5M1212.72 412.5H1247.1M1212.72 412.5V446.5M1247.1 412.5H1280.5M1247.1 412.5V446.5M1280.5 412.5V446.5M640.991 446.5H674.391M640.991 446.5V481.5M640.991 446.5H606.609M674.391 446.5H707.791M674.391 446.5V481.5M707.791 446.5H742.173M707.791 446.5V481.5M742.173 446.5H775.573M742.173 446.5V481.5M775.573 446.5H808.973M775.573 446.5V481.5M808.973 446.5H842.373M808.973 446.5V481.5M842.373 446.5H876.755M842.373 446.5V481.5M876.755 446.5H910.155M876.755 446.5V481.5M910.155 446.5H943.555M910.155 446.5V481.5M943.555 446.5H977.937M943.555 446.5V481.5M977.937 446.5H1011.34M977.937 446.5V481.5M1011.34 446.5H1044.74M1011.34 446.5V481.5M1044.74 446.5H1078.14M1044.74 446.5V481.5M1078.14 446.5H1112.52M1078.14 446.5V481.5M1112.52 446.5H1145.92M1112.52 446.5V481.5M1145.92 446.5H1179.32M1145.92 446.5V481.5M1179.32 446.5H1212.72M1179.32 446.5V481.5M1212.72 446.5H1247.1M1212.72 446.5V481.5M1247.1 446.5H1280.5M1247.1 446.5V481.5M1280.5 446.5V481.5M640.991 481.5H674.391M640.991 481.5V515.5M640.991 481.5H606.609M674.391 481.5H707.791M674.391 481.5V515.5M707.791 481.5H742.173M707.791 481.5V515.5M742.173 481.5H775.573M742.173 481.5V515.5M775.573 481.5H808.973M775.573 481.5V515.5M808.973 481.5H842.373M808.973 481.5V515.5M842.373 481.5H876.755M842.373 481.5V515.5M876.755 481.5H910.155M876.755 481.5V515.5M910.155 481.5H943.555M910.155 481.5V515.5M943.555 481.5H977.937M943.555 481.5V515.5M977.937 481.5H1011.34M977.937 481.5V515.5M1011.34 481.5H1044.74M1011.34 481.5V515.5M1044.74 481.5H1078.14M1044.74 481.5V515.5M1078.14 481.5H1112.52M1078.14 481.5V515.5M1112.52 481.5H1145.92M1112.52 481.5V515.5M1145.92 481.5H1179.32M1145.92 481.5V515.5M1179.32 481.5H1212.72M1179.32 481.5V515.5M1212.72 481.5H1247.1M1212.72 481.5V515.5M1247.1 481.5H1280.5M1247.1 481.5V515.5M1280.5 481.5V515.5M640.991 515.5H674.391M640.991 515.5V549.5M640.991 515.5H606.609M674.391 515.5H707.791M674.391 515.5V549.5M707.791 515.5H742.173M707.791 515.5V549.5M742.173 515.5H775.573M742.173 515.5V549.5M775.573 515.5H808.973M775.573 515.5V549.5M808.973 515.5H842.373M808.973 515.5V549.5M842.373 515.5H876.755M842.373 515.5V549.5M876.755 515.5H910.155M876.755 515.5V549.5M910.155 515.5H943.555M910.155 515.5V549.5M943.555 515.5H977.937M943.555 515.5V549.5M977.937 515.5H1011.34M977.937 515.5V549.5M1011.34 515.5H1044.74M1011.34 515.5V549.5M1044.74 515.5H1078.14M1044.74 515.5V549.5M1078.14 515.5H1112.52M1078.14 515.5V549.5M1112.52 515.5H1145.92M1112.52 515.5V549.5M1145.92 515.5H1179.32M1145.92 515.5V549.5M1179.32 515.5H1212.72M1179.32 515.5V549.5M1212.72 515.5H1247.1M1212.72 515.5V549.5M1247.1 515.5H1280.5M1247.1 515.5V549.5M1280.5 515.5V549.5M640.991 549.5H674.391M640.991 549.5V583.5M640.991 549.5H606.609M674.391 549.5H707.791M674.391 549.5V583.5M707.791 549.5H742.173M707.791 549.5V583.5M742.173 549.5H775.573M742.173 549.5V583.5M775.573 549.5H808.973M775.573 549.5V583.5M808.973 549.5H842.373M808.973 549.5V583.5M842.373 549.5H876.755M842.373 549.5V583.5M876.755 549.5H910.155M876.755 549.5V583.5M910.155 549.5H943.555M910.155 549.5V583.5M943.555 549.5H977.937M943.555 549.5V583.5M977.937 549.5H1011.34M977.937 549.5V583.5M1011.34 549.5H1044.74M1011.34 549.5V583.5M1044.74 549.5H1078.14M1044.74 549.5V583.5M1078.14 549.5H1112.52M1078.14 549.5V583.5M1112.52 549.5H1145.92M1112.52 549.5V583.5M1145.92 549.5H1179.32M1145.92 549.5V583.5M1179.32 549.5H1212.72M1179.32 549.5V583.5M1212.72 549.5H1247.1M1212.72 549.5V583.5M1247.1 549.5H1280.5M1247.1 549.5V583.5M1280.5 549.5V583.5M640.991 583.5H674.391M640.991 583.5V618.5M640.991 583.5H606.609M674.391 583.5H707.791M674.391 583.5V618.5M707.791 583.5H742.173M707.791 583.5V618.5M742.173 583.5H775.573M742.173 583.5V618.5M775.573 583.5H808.973M775.573 583.5V618.5M808.973 583.5H842.373M808.973 583.5V618.5M842.373 583.5H876.755M842.373 583.5V618.5M876.755 583.5H910.155M876.755 583.5V618.5M910.155 583.5H943.555M910.155 583.5V618.5M943.555 583.5H977.937M943.555 583.5V618.5M977.937 583.5H1011.34M977.937 583.5V618.5M1011.34 583.5H1044.74M1011.34 583.5V618.5M1044.74 583.5H1078.14M1044.74 583.5V618.5M1078.14 583.5H1112.52M1078.14 583.5V618.5M1112.52 583.5H1145.92M1112.52 583.5V618.5M1145.92 583.5H1179.32M1145.92 583.5V618.5M1179.32 583.5H1212.72M1179.32 583.5V618.5M1212.72 583.5H1247.1M1212.72 583.5V618.5M1247.1 583.5H1280.5M1247.1 583.5V618.5M1280.5 583.5V618.5M640.991 618.5H674.391M640.991 618.5V652.5M640.991 618.5H606.609M674.391 618.5H707.791M674.391 618.5V652.5M707.791 618.5H742.173M707.791 618.5V652.5M742.173 618.5H775.573M742.173 618.5V652.5M775.573 618.5H808.973M775.573 618.5V652.5M808.973 618.5H842.373M808.973 618.5V652.5M842.373 618.5H876.755M842.373 618.5V652.5M876.755 618.5H910.155M876.755 618.5V652.5M910.155 618.5H943.555M910.155 618.5V652.5M943.555 618.5H977.937M943.555 618.5V652.5M977.937 618.5H1011.34M977.937 618.5V652.5M1011.34 618.5H1044.74M1011.34 618.5V652.5M1044.74 618.5H1078.14M1044.74 618.5V652.5M1078.14 618.5H1112.52M1078.14 618.5V652.5M1112.52 618.5H1145.92M1112.52 618.5V652.5M1145.92 618.5H1179.32M1145.92 618.5V652.5M1179.32 618.5H1212.72M1179.32 618.5V652.5M1212.72 618.5H1247.1M1212.72 618.5V652.5M1247.1 618.5H1280.5M1247.1 618.5V652.5M1280.5 618.5V652.5M640.991 652.5H674.391M640.991 652.5V686.5M640.991 652.5H606.609M674.391 652.5H707.791M674.391 652.5V686.5M707.791 652.5H742.173M707.791 652.5V686.5M742.173 652.5H775.573M742.173 652.5V686.5M775.573 652.5H808.973M775.573 652.5V686.5M808.973 652.5H842.373M808.973 652.5V686.5M842.373 652.5H876.755M842.373 652.5V686.5M876.755 652.5H910.155M876.755 652.5V686.5M910.155 652.5H943.555M910.155 652.5V686.5M943.555 652.5H977.937M943.555 652.5V686.5M977.937 652.5H1011.34M977.937 652.5V686.5M1011.34 652.5H1044.74M1011.34 652.5V686.5M1044.74 652.5H1078.14M1044.74 652.5V686.5M1078.14 652.5H1112.52M1078.14 652.5V686.5M1112.52 652.5H1145.92M1112.52 652.5V686.5M1145.92 652.5H1179.32M1145.92 652.5V686.5M1179.32 652.5H1212.72M1179.32 652.5V686.5M1212.72 652.5H1247.1M1212.72 652.5V686.5M1247.1 652.5H1280.5M1247.1 652.5V686.5M1280.5 652.5V686.5M640.991 686.5H674.391M640.991 686.5V721.5M640.991 686.5H606.609M674.391 686.5H707.791M674.391 686.5V721.5M707.791 686.5H742.173M707.791 686.5V721.5M742.173 686.5H775.573M742.173 686.5V721.5M775.573 686.5H808.973M775.573 686.5V721.5M808.973 686.5H842.373M808.973 686.5V721.5M842.373 686.5H876.755M842.373 686.5V721.5M876.755 686.5H910.155M876.755 686.5V721.5M910.155 686.5H943.555M910.155 686.5V721.5M943.555 686.5H977.937M943.555 686.5V721.5M977.937 686.5H1011.34M977.937 686.5V721.5M1011.34 686.5H1044.74M1011.34 686.5V721.5M1044.74 686.5H1078.14M1044.74 686.5V721.5M1078.14 686.5H1112.52M1078.14 686.5V721.5M1112.52 686.5H1145.92M1112.52 686.5V721.5M1145.92 686.5H1179.32M1145.92 686.5V721.5M1179.32 686.5H1212.72M1179.32 686.5V721.5M1212.72 686.5H1247.1M1212.72 686.5V721.5M1247.1 686.5H1280.5M1247.1 686.5V721.5M1280.5 686.5V721.5M640.991 721.5H674.391M640.991 721.5V755.5M640.991 721.5H606.609M674.391 721.5H707.791M674.391 721.5V755.5M707.791 721.5H742.173M707.791 721.5V755.5M742.173 721.5H775.573M742.173 721.5V755.5M775.573 721.5H808.973M775.573 721.5V755.5M808.973 721.5H842.373M808.973 721.5V755.5M842.373 721.5H876.755M842.373 721.5V755.5M876.755 721.5H910.155M876.755 721.5V755.5M910.155 721.5H943.555M910.155 721.5V755.5M943.555 721.5H977.937M943.555 721.5V755.5M977.937 721.5H1011.34M977.937 721.5V755.5M1011.34 721.5H1044.74M1011.34 721.5V755.5M1044.74 721.5H1078.14M1044.74 721.5V755.5M1078.14 721.5H1112.52M1078.14 721.5V755.5M1112.52 721.5H1145.92M1112.52 721.5V755.5M1145.92 721.5H1179.32M1145.92 721.5V755.5M1179.32 721.5H1212.72M1179.32 721.5V755.5M1212.72 721.5H1247.1M1212.72 721.5V755.5M1247.1 721.5H1280.5M1247.1 721.5V755.5M1280.5 721.5V755.5M640.991 755.5H674.391M640.991 755.5V789.5M640.991 755.5H606.609M674.391 755.5H707.791M674.391 755.5V789.5M707.791 755.5H742.173M707.791 755.5V789.5M742.173 755.5H775.573M742.173 755.5V789.5M775.573 755.5H808.973M775.573 755.5V789.5M808.973 755.5H842.373M808.973 755.5V789.5M842.373 755.5H876.755M842.373 755.5V789.5M876.755 755.5H910.155M876.755 755.5V789.5M910.155 755.5H943.555M910.155 755.5V789.5M943.555 755.5H977.937M943.555 755.5V789.5M977.937 755.5H1011.34M977.937 755.5V789.5M1011.34 755.5H1044.74M1011.34 755.5V789.5M1044.74 755.5H1078.14M1044.74 755.5V789.5M1078.14 755.5H1112.52M1078.14 755.5V789.5M1112.52 755.5H1145.92M1112.52 755.5V789.5M1145.92 755.5H1179.32M1145.92 755.5V789.5M1179.32 755.5H1212.72M1179.32 755.5V789.5M1212.72 755.5H1247.1M1212.72 755.5V789.5M1247.1 755.5H1280.5M1247.1 755.5V789.5M1280.5 755.5V789.5M640.991 789.5H674.391M640.991 789.5V824.5M640.991 789.5H606.609M674.391 789.5H707.791M674.391 789.5V824.5M707.791 789.5H742.173M707.791 789.5V824.5M742.173 789.5H775.573M742.173 789.5V824.5M775.573 789.5H808.973M775.573 789.5V824.5M808.973 789.5H842.373M808.973 789.5V824.5M842.373 789.5H876.755M842.373 789.5V824.5M876.755 789.5H910.155M876.755 789.5V824.5M910.155 789.5H943.555M910.155 789.5V824.5M943.555 789.5H977.937M943.555 789.5V824.5M977.937 789.5H1011.34M977.937 789.5V824.5M1011.34 789.5H1044.74M1011.34 789.5V824.5M1044.74 789.5H1078.14M1044.74 789.5V824.5M1078.14 789.5H1112.52M1078.14 789.5V824.5M1112.52 789.5H1145.92M1112.52 789.5V824.5M1145.92 789.5H1179.32M1145.92 789.5V824.5M1179.32 789.5H1212.72M1179.32 789.5V824.5M1212.72 789.5H1247.1M1212.72 789.5V824.5M1247.1 789.5H1280.5M1247.1 789.5V824.5M1280.5 789.5V824.5M640.991 824.5H674.391M640.991 824.5V858.5M640.991 824.5H606.609M674.391 824.5H707.791M674.391 824.5V858.5M707.791 824.5H742.173M707.791 824.5V858.5M742.173 824.5H775.573M742.173 824.5V858.5M775.573 824.5H808.973M775.573 824.5V858.5M808.973 824.5H842.373M808.973 824.5V858.5M842.373 824.5H876.755M842.373 824.5V858.5M876.755 824.5H910.155M876.755 824.5V858.5M910.155 824.5H943.555M910.155 824.5V858.5M943.555 824.5H977.937M943.555 824.5V858.5M977.937 824.5H1011.34M977.937 824.5V858.5M1011.34 824.5H1044.74M1011.34 824.5V858.5M1044.74 824.5H1078.14M1044.74 824.5V858.5M1078.14 824.5H1112.52M1078.14 824.5V858.5M1112.52 824.5H1145.92M1112.52 824.5V858.5M1145.92 824.5H1179.32M1145.92 824.5V858.5M1179.32 824.5H1212.72M1179.32 824.5V858.5M1212.72 824.5H1247.1M1212.72 824.5V858.5M1247.1 824.5H1280.5M1247.1 824.5V858.5M1280.5 824.5V858.5M640.991 858.5H674.391M640.991 858.5V892.5M640.991 858.5H606.609M674.391 858.5H707.791M674.391 858.5V892.5M707.791 858.5H742.173M707.791 858.5V892.5M742.173 858.5H775.573M742.173 858.5V892.5M775.573 858.5H808.973M775.573 858.5V892.5M808.973 858.5H842.373M808.973 858.5V892.5M842.373 858.5H876.755M842.373 858.5V892.5M876.755 858.5H910.155M876.755 858.5V892.5M910.155 858.5H943.555M910.155 858.5V892.5M943.555 858.5H977.937M943.555 858.5V892.5M977.937 858.5H1011.34M977.937 858.5V892.5M1011.34 858.5H1044.74M1011.34 858.5V892.5M1044.74 858.5H1078.14M1044.74 858.5V892.5M1078.14 858.5H1112.52M1078.14 858.5V892.5M1112.52 858.5H1145.92M1112.52 858.5V892.5M1145.92 858.5H1179.32M1145.92 858.5V892.5M1179.32 858.5H1212.72M1179.32 858.5V892.5M1212.72 858.5H1247.1M1212.72 858.5V892.5M1247.1 858.5H1280.5M1247.1 858.5V892.5M1280.5 858.5V892.5M640.991 892.5H674.391M640.991 892.5V926.5M640.991 892.5H606.609M674.391 892.5H707.791M674.391 892.5V926.5M707.791 892.5H742.173M707.791 892.5V926.5M742.173 892.5H775.573M742.173 892.5V926.5M775.573 892.5H808.973M775.573 892.5V926.5M808.973 892.5H842.373M808.973 892.5V926.5M842.373 892.5H876.755M842.373 892.5V926.5M876.755 892.5H910.155M876.755 892.5V926.5M910.155 892.5H943.555M910.155 892.5V926.5M943.555 892.5H977.937M943.555 892.5V926.5M977.937 892.5H1011.34M977.937 892.5V926.5M1011.34 892.5H1044.74M1011.34 892.5V926.5M1044.74 892.5H1078.14M1044.74 892.5V926.5M1078.14 892.5H1112.52M1078.14 892.5V926.5M1112.52 892.5H1145.92M1112.52 892.5V926.5M1145.92 892.5H1179.32M1145.92 892.5V926.5M1179.32 892.5H1212.72M1179.32 892.5V926.5M1212.72 892.5H1247.1M1212.72 892.5V926.5M1247.1 892.5H1280.5M1247.1 892.5V926.5M1280.5 892.5V926.5M640.991 926.5H674.391M640.991 926.5V961.5M640.991 926.5H606.609M674.391 926.5H707.791M674.391 926.5V961.5M707.791 926.5H742.173M707.791 926.5V961.5M742.173 926.5H775.573M742.173 926.5V961.5M775.573 926.5H808.973M775.573 926.5V961.5M808.973 926.5H842.373M808.973 926.5V961.5M842.373 926.5H876.755M842.373 926.5V961.5M876.755 926.5H910.155M876.755 926.5V961.5M910.155 926.5H943.555M910.155 926.5V961.5M943.555 926.5H977.937M943.555 926.5V961.5M977.937 926.5H1011.34M977.937 926.5V961.5M1011.34 926.5H1044.74M1011.34 926.5V961.5M1044.74 926.5H1078.14M1044.74 926.5V961.5M1078.14 926.5H1112.52M1078.14 926.5V961.5M1112.52 926.5H1145.92M1112.52 926.5V961.5M1145.92 926.5H1179.32M1145.92 926.5V961.5M1179.32 926.5H1212.72M1179.32 926.5V961.5M1212.72 926.5H1247.1M1212.72 926.5V961.5M1247.1 926.5H1280.5M1247.1 926.5V961.5M1280.5 926.5V961.5M640.991 961.5H674.391M640.991 961.5V995.5M640.991 961.5H606.609M674.391 961.5H707.791M674.391 961.5V995.5M707.791 961.5H742.173M707.791 961.5V995.5M742.173 961.5H775.573M742.173 961.5V995.5M775.573 961.5H808.973M775.573 961.5V995.5M808.973 961.5H842.373M808.973 961.5V995.5M842.373 961.5H876.755M842.373 961.5V995.5M876.755 961.5H910.155M876.755 961.5V995.5M910.155 961.5H943.555M910.155 961.5V995.5M943.555 961.5H977.937M943.555 961.5V995.5M977.937 961.5H1011.34M977.937 961.5V995.5M1011.34 961.5H1044.74M1011.34 961.5V995.5M1044.74 961.5H1078.14M1044.74 961.5V995.5M1078.14 961.5H1112.52M1078.14 961.5V995.5M1112.52 961.5H1145.92M1112.52 961.5V995.5M1145.92 961.5H1179.32M1145.92 961.5V995.5M1179.32 961.5H1212.72M1179.32 961.5V995.5M1212.72 961.5H1247.1M1212.72 961.5V995.5M1247.1 961.5H1280.5M1247.1 961.5V995.5M1280.5 961.5V995.5M640.991 995.5H674.391M640.991 995.5V1029.5M640.991 995.5H606.609M674.391 995.5H707.791M674.391 995.5V1029.5M707.791 995.5H742.173M707.791 995.5V1029.5M742.173 995.5H775.573M742.173 995.5V1029.5M775.573 995.5H808.973M775.573 995.5V1029.5M808.973 995.5H842.373M808.973 995.5V1029.5M842.373 995.5H876.755M842.373 995.5V1029.5M876.755 995.5H910.155M876.755 995.5V1029.5M910.155 995.5H943.555M910.155 995.5V1029.5M943.555 995.5H977.937M943.555 995.5V1029.5M977.937 995.5H1011.34M977.937 995.5V1029.5M1011.34 995.5H1044.74M1011.34 995.5V1029.5M1044.74 995.5H1078.14M1044.74 995.5V1029.5M1078.14 995.5H1112.52M1078.14 995.5V1029.5M1112.52 995.5H1145.92M1112.52 995.5V1029.5M1145.92 995.5H1179.32M1145.92 995.5V1029.5M1179.32 995.5H1212.72M1179.32 995.5V1029.5M1212.72 995.5H1247.1M1212.72 995.5V1029.5M1247.1 995.5H1280.5M1247.1 995.5V1029.5M1280.5 995.5V1029.5M640.991 1029.5H674.391M640.991 1029.5V1064.5M640.991 1029.5H606.609M674.391 1029.5H707.791M674.391 1029.5V1064.5M707.791 1029.5H742.173M707.791 1029.5V1064.5M742.173 1029.5H775.573M742.173 1029.5V1064.5M775.573 1029.5H808.973M775.573 1029.5V1064.5M808.973 1029.5H842.373M808.973 1029.5V1064.5M842.373 1029.5H876.755M842.373 1029.5V1064.5M876.755 1029.5H910.155M876.755 1029.5V1064.5M910.155 1029.5H943.555M910.155 1029.5V1064.5M943.555 1029.5H977.937M943.555 1029.5V1064.5M977.937 1029.5H1011.34M977.937 1029.5V1064.5M1011.34 1029.5H1044.74M1011.34 1029.5V1064.5M1044.74 1029.5H1078.14M1044.74 1029.5V1064.5M1078.14 1029.5H1112.52M1078.14 1029.5V1064.5M1112.52 1029.5H1145.92M1112.52 1029.5V1064.5M1145.92 1029.5H1179.32M1145.92 1029.5V1064.5M1179.32 1029.5H1212.72M1179.32 1029.5V1064.5M1212.72 1029.5H1247.1M1212.72 1029.5V1064.5M1247.1 1029.5H1280.5M1247.1 1029.5V1064.5M1280.5 1029.5V1064.5M640.991 1064.5H674.391M640.991 1064.5V1098.5M640.991 1064.5H606.609M674.391 1064.5H707.791M674.391 1064.5V1098.5M707.791 1064.5H742.173M707.791 1064.5V1098.5M742.173 1064.5H775.573M742.173 1064.5V1098.5M775.573 1064.5H808.973M775.573 1064.5V1098.5M808.973 1064.5H842.373M808.973 1064.5V1098.5M842.373 1064.5H876.755M842.373 1064.5V1098.5M876.755 1064.5H910.155M876.755 1064.5V1098.5M910.155 1064.5H943.555M910.155 1064.5V1098.5M943.555 1064.5H977.937M943.555 1064.5V1098.5M977.937 1064.5H1011.34M977.937 1064.5V1098.5M1011.34 1064.5H1044.74M1011.34 1064.5V1098.5M1044.74 1064.5H1078.14M1044.74 1064.5V1098.5M1078.14 1064.5H1112.52M1078.14 1064.5V1098.5M1112.52 1064.5H1145.92M1112.52 1064.5V1098.5M1145.92 1064.5H1179.32M1145.92 1064.5V1098.5M1179.32 1064.5H1212.72M1179.32 1064.5V1098.5M1212.72 1064.5H1247.1M1212.72 1064.5V1098.5M1247.1 1064.5H1280.5M1247.1 1064.5V1098.5M1280.5 1064.5V1098.5M640.991 1098.5H674.391M640.991 1098.5V1132.5M640.991 1098.5H606.609M674.391 1098.5H707.791M674.391 1098.5V1132.5M707.791 1098.5H742.173M707.791 1098.5V1132.5M742.173 1098.5H775.573M742.173 1098.5V1132.5M775.573 1098.5H808.973M775.573 1098.5V1132.5M808.973 1098.5H842.373M808.973 1098.5V1132.5M842.373 1098.5H876.755M842.373 1098.5V1132.5M876.755 1098.5H910.155M876.755 1098.5V1132.5M910.155 1098.5H943.555M910.155 1098.5V1132.5M943.555 1098.5H977.937M943.555 1098.5V1132.5M977.937 1098.5H1011.34M977.937 1098.5V1132.5M1011.34 1098.5H1044.74M1011.34 1098.5V1132.5M1044.74 1098.5H1078.14M1044.74 1098.5V1132.5M1078.14 1098.5H1112.52M1078.14 1098.5V1132.5M1112.52 1098.5H1145.92M1112.52 1098.5V1132.5M1145.92 1098.5H1179.32M1145.92 1098.5V1132.5M1179.32 1098.5H1212.72M1179.32 1098.5V1132.5M1212.72 1098.5H1247.1M1212.72 1098.5V1132.5M1247.1 1098.5H1280.5M1247.1 1098.5V1132.5M1280.5 1098.5V1132.5M640.991 1132.5H674.391M640.991 1132.5V1167.5M640.991 1132.5H606.609M674.391 1132.5H707.791M674.391 1132.5V1167.5M707.791 1132.5H742.173M707.791 1132.5V1167.5M742.173 1132.5H775.573M742.173 1132.5V1167.5M775.573 1132.5H808.973M775.573 1132.5V1167.5M808.973 1132.5H842.373M808.973 1132.5V1167.5M842.373 1132.5H876.755M842.373 1132.5V1167.5M876.755 1132.5H910.155M876.755 1132.5V1167.5M910.155 1132.5H943.555M910.155 1132.5V1167.5M943.555 1132.5H977.937M943.555 1132.5V1167.5M977.937 1132.5H1011.34M977.937 1132.5V1167.5M1011.34 1132.5H1044.74M1011.34 1132.5V1167.5M1044.74 1132.5H1078.14M1044.74 1132.5V1167.5M1078.14 1132.5H1112.52M1078.14 1132.5V1167.5M1112.52 1132.5H1145.92M1112.52 1132.5V1167.5M1145.92 1132.5H1179.32M1145.92 1132.5V1167.5M1179.32 1132.5H1212.72M1179.32 1132.5V1167.5M1212.72 1132.5H1247.1M1212.72 1132.5V1167.5M1247.1 1132.5H1280.5M1247.1 1132.5V1167.5M1280.5 1132.5V1167.5M640.991 1167.5H674.391M640.991 1167.5V1201.5M640.991 1167.5H606.609M674.391 1167.5H707.791M674.391 1167.5V1201.5M707.791 1167.5H742.173M707.791 1167.5V1201.5M742.173 1167.5H775.573M742.173 1167.5V1201.5M775.573 1167.5H808.973M775.573 1167.5V1201.5M808.973 1167.5H842.373M808.973 1167.5V1201.5M842.373 1167.5H876.755M842.373 1167.5V1201.5M876.755 1167.5H910.155M876.755 1167.5V1201.5M910.155 1167.5H943.555M910.155 1167.5V1201.5M943.555 1167.5H977.937M943.555 1167.5V1201.5M977.937 1167.5H1011.34M977.937 1167.5V1201.5M1011.34 1167.5H1044.74M1011.34 1167.5V1201.5M1044.74 1167.5H1078.14M1044.74 1167.5V1201.5M1078.14 1167.5H1112.52M1078.14 1167.5V1201.5M1112.52 1167.5H1145.92M1112.52 1167.5V1201.5M1145.92 1167.5H1179.32M1145.92 1167.5V1201.5M1179.32 1167.5H1212.72M1179.32 1167.5V1201.5M1212.72 1167.5H1247.1M1212.72 1167.5V1201.5M1247.1 1167.5H1280.5M1247.1 1167.5V1201.5M1280.5 1167.5V1201.5M640.991 1201.5H674.391M640.991 1201.5V1235.5M640.991 1201.5H606.609M674.391 1201.5H707.791M674.391 1201.5V1235.5M707.791 1201.5H742.173M707.791 1201.5V1235.5M742.173 1201.5H775.573M742.173 1201.5V1235.5M775.573 1201.5H808.973M775.573 1201.5V1235.5M808.973 1201.5H842.373M808.973 1201.5V1235.5M842.373 1201.5H876.755M842.373 1201.5V1235.5M876.755 1201.5H910.155M876.755 1201.5V1235.5M910.155 1201.5H943.555M910.155 1201.5V1235.5M943.555 1201.5H977.937M943.555 1201.5V1235.5M977.937 1201.5H1011.34M977.937 1201.5V1235.5M1011.34 1201.5H1044.74M1011.34 1201.5V1235.5M1044.74 1201.5H1078.14M1044.74 1201.5V1235.5M1078.14 1201.5H1112.52M1078.14 1201.5V1235.5M1112.52 1201.5H1145.92M1112.52 1201.5V1235.5M1145.92 1201.5H1179.32M1145.92 1201.5V1235.5M1179.32 1201.5H1212.72M1179.32 1201.5V1235.5M1212.72 1201.5H1247.1M1212.72 1201.5V1235.5M1247.1 1201.5H1280.5M1247.1 1201.5V1235.5M1280.5 1201.5V1235.5M640.991 1235.5H674.391M640.991 1235.5V1269.5M640.991 1235.5H606.609M674.391 1235.5H707.791M674.391 1235.5V1269.5M707.791 1235.5H742.173M707.791 1235.5V1269.5M742.173 1235.5H775.573M742.173 1235.5V1269.5M775.573 1235.5H808.973M775.573 1235.5V1269.5M808.973 1235.5H842.373M808.973 1235.5V1269.5M842.373 1235.5H876.755M842.373 1235.5V1269.5M876.755 1235.5H910.155M876.755 1235.5V1269.5M910.155 1235.5H943.555M910.155 1235.5V1269.5M943.555 1235.5H977.937M943.555 1235.5V1269.5M977.937 1235.5H1011.34M977.937 1235.5V1269.5M1011.34 1235.5H1044.74M1011.34 1235.5V1269.5M1044.74 1235.5H1078.14M1044.74 1235.5V1269.5M1078.14 1235.5H1112.52M1078.14 1235.5V1269.5M1112.52 1235.5H1145.92M1112.52 1235.5V1269.5M1145.92 1235.5H1179.32M1145.92 1235.5V1269.5M1179.32 1235.5H1212.72M1179.32 1235.5V1269.5M1212.72 1235.5H1247.1M1212.72 1235.5V1269.5M1247.1 1235.5H1280.5M1247.1 1235.5V1269.5M1280.5 1235.5V1269.5H1247.1M640.991 1269.5H674.391M640.991 1269.5H606.609M674.391 1269.5H707.791M707.791 1269.5H742.173M742.173 1269.5H775.573M775.573 1269.5H808.973M808.973 1269.5H842.373M842.373 1269.5H876.755M876.755 1269.5H910.155M910.155 1269.5H943.555M943.555 1269.5H977.937M977.937 1269.5H1011.34M1011.34 1269.5H1044.74M1044.74 1269.5H1078.14M1078.14 1269.5H1112.52M1112.52 1269.5H1145.92M1145.92 1269.5H1179.32M1179.32 1269.5H1212.72M1212.72 1269.5H1247.1M34.8822 0.5H0.5V35.5M34.8822 0.5V35.5M34.8822 0.5H68.282M0.5 35.5H34.8822M0.5 35.5V69.5M34.8822 35.5H68.282M34.8822 35.5V69.5M68.282 0.5V35.5M68.282 0.5H101.682M68.282 35.5H101.682M68.282 35.5V69.5M101.682 0.5V35.5M101.682 0.5H136.064M101.682 35.5H136.064M101.682 35.5V69.5M136.064 0.5V35.5M136.064 0.5H169.464M136.064 35.5H169.464M136.064 35.5V69.5M169.464 0.5V35.5M169.464 0.5H202.864M169.464 35.5H202.864M169.464 35.5V69.5M202.864 0.5V35.5M202.864 0.5H236.264M202.864 35.5H236.264M202.864 35.5V69.5M236.264 0.5V35.5M236.264 0.5H270.646M236.264 35.5H270.646M236.264 35.5V69.5M270.646 0.5V35.5M270.646 0.5H304.046M270.646 35.5H304.046M270.646 35.5V69.5M304.046 0.5V35.5M304.046 0.5H337.446M304.046 35.5H337.446M304.046 35.5V69.5M337.446 0.5V35.5M337.446 0.5H370.845M337.446 35.5H370.845M337.446 35.5V69.5M370.845 0.5V35.5M370.845 0.5H405.228M370.845 35.5H405.228M370.845 35.5V69.5M405.228 0.5V35.5M405.228 0.5H438.627M405.228 35.5H438.627M405.228 35.5V69.5M438.627 0.5V35.5M438.627 0.5H472.027M438.627 35.5H472.027M438.627 35.5V69.5M472.027 0.5V35.5M472.027 0.5H506.409M472.027 35.5H506.409M472.027 35.5V69.5M506.409 0.5V35.5M506.409 0.5H539.809M506.409 35.5H539.809M506.409 35.5V69.5M539.809 0.5V35.5M539.809 0.5H573.209M539.809 35.5H573.209M539.809 35.5V69.5M573.209 0.5V35.5M573.209 0.5H606.609M573.209 35.5H606.609M573.209 35.5V69.5M606.609 0.5V35.5M606.609 35.5V69.5M0.5 69.5H34.8822M0.5 69.5V103.5M34.8822 69.5H68.282M34.8822 69.5V103.5M68.282 69.5H101.682M68.282 69.5V103.5M101.682 69.5H136.064M101.682 69.5V103.5M136.064 69.5H169.464M136.064 69.5V103.5M169.464 69.5H202.864M169.464 69.5V103.5M202.864 69.5H236.264M202.864 69.5V103.5M236.264 69.5H270.646M236.264 69.5V103.5M270.646 69.5H304.046M270.646 69.5V103.5M304.046 69.5H337.446M304.046 69.5V103.5M337.446 69.5H370.845M337.446 69.5V103.5M370.845 69.5H405.228M370.845 69.5V103.5M405.228 69.5H438.627M405.228 69.5V103.5M438.627 69.5H472.027M438.627 69.5V103.5M472.027 69.5H506.409M472.027 69.5V103.5M506.409 69.5H539.809M506.409 69.5V103.5M539.809 69.5H573.209M539.809 69.5V103.5M573.209 69.5H606.609M573.209 69.5V103.5M606.609 69.5V103.5M0.5 103.5H34.8822M0.5 103.5V138.5M34.8822 103.5H68.282M34.8822 103.5V138.5M68.282 103.5H101.682M68.282 103.5V138.5M101.682 103.5H136.064M101.682 103.5V138.5M136.064 103.5H169.464M136.064 103.5V138.5M169.464 103.5H202.864M169.464 103.5V138.5M202.864 103.5H236.264M202.864 103.5V138.5M236.264 103.5H270.646M236.264 103.5V138.5M270.646 103.5H304.046M270.646 103.5V138.5M304.046 103.5H337.446M304.046 103.5V138.5M337.446 103.5H370.845M337.446 103.5V138.5M370.845 103.5H405.228M370.845 103.5V138.5M405.228 103.5H438.627M405.228 103.5V138.5M438.627 103.5H472.027M438.627 103.5V138.5M472.027 103.5H506.409M472.027 103.5V138.5M506.409 103.5H539.809M506.409 103.5V138.5M539.809 103.5H573.209M539.809 103.5V138.5M573.209 103.5H606.609M573.209 103.5V138.5M606.609 103.5V138.5M0.5 138.5H34.8822M0.5 138.5V172.5M34.8822 138.5H68.282M34.8822 138.5V172.5M68.282 138.5H101.682M68.282 138.5V172.5M101.682 138.5H136.064M101.682 138.5V172.5M136.064 138.5H169.464M136.064 138.5V172.5M169.464 138.5H202.864M169.464 138.5V172.5M202.864 138.5H236.264M202.864 138.5V172.5M236.264 138.5H270.646M236.264 138.5V172.5M270.646 138.5H304.046M270.646 138.5V172.5M304.046 138.5H337.446M304.046 138.5V172.5M337.446 138.5H370.845M337.446 138.5V172.5M370.845 138.5H405.228M370.845 138.5V172.5M405.228 138.5H438.627M405.228 138.5V172.5M438.627 138.5H472.027M438.627 138.5V172.5M472.027 138.5H506.409M472.027 138.5V172.5M506.409 138.5H539.809M506.409 138.5V172.5M539.809 138.5H573.209M539.809 138.5V172.5M573.209 138.5H606.609M573.209 138.5V172.5M606.609 138.5V172.5M0.5 172.5H34.8822M0.5 172.5V206.5M34.8822 172.5H68.282M34.8822 172.5V206.5M68.282 172.5H101.682M68.282 172.5V206.5M101.682 172.5H136.064M101.682 172.5V206.5M136.064 172.5H169.464M136.064 172.5V206.5M169.464 172.5H202.864M169.464 172.5V206.5M202.864 172.5H236.264M202.864 172.5V206.5M236.264 172.5H270.646M236.264 172.5V206.5M270.646 172.5H304.046M270.646 172.5V206.5M304.046 172.5H337.446M304.046 172.5V206.5M337.446 172.5H370.845M337.446 172.5V206.5M370.845 172.5H405.228M370.845 172.5V206.5M405.228 172.5H438.627M405.228 172.5V206.5M438.627 172.5H472.027M438.627 172.5V206.5M472.027 172.5H506.409M472.027 172.5V206.5M506.409 172.5H539.809M506.409 172.5V206.5M539.809 172.5H573.209M539.809 172.5V206.5M573.209 172.5H606.609M573.209 172.5V206.5M606.609 172.5V206.5M0.5 206.5H34.8822M0.5 206.5V241.5M34.8822 206.5H68.282M34.8822 206.5V241.5M68.282 206.5H101.682M68.282 206.5V241.5M101.682 206.5H136.064M101.682 206.5V241.5M136.064 206.5H169.464M136.064 206.5V241.5M169.464 206.5H202.864M169.464 206.5V241.5M202.864 206.5H236.264M202.864 206.5V241.5M236.264 206.5H270.646M236.264 206.5V241.5M270.646 206.5H304.046M270.646 206.5V241.5M304.046 206.5H337.446M304.046 206.5V241.5M337.446 206.5H370.845M337.446 206.5V241.5M370.845 206.5H405.228M370.845 206.5V241.5M405.228 206.5H438.627M405.228 206.5V241.5M438.627 206.5H472.027M438.627 206.5V241.5M472.027 206.5H506.409M472.027 206.5V241.5M506.409 206.5H539.809M506.409 206.5V241.5M539.809 206.5H573.209M539.809 206.5V241.5M573.209 206.5H606.609M573.209 206.5V241.5M606.609 206.5V241.5M0.5 241.5H34.8822M0.5 241.5V275.5M34.8822 241.5H68.282M34.8822 241.5V275.5M68.282 241.5H101.682M68.282 241.5V275.5M101.682 241.5H136.064M101.682 241.5V275.5M136.064 241.5H169.464M136.064 241.5V275.5M169.464 241.5H202.864M169.464 241.5V275.5M202.864 241.5H236.264M202.864 241.5V275.5M236.264 241.5H270.646M236.264 241.5V275.5M270.646 241.5H304.046M270.646 241.5V275.5M304.046 241.5H337.446M304.046 241.5V275.5M337.446 241.5H370.845M337.446 241.5V275.5M370.845 241.5H405.228M370.845 241.5V275.5M405.228 241.5H438.627M405.228 241.5V275.5M438.627 241.5H472.027M438.627 241.5V275.5M472.027 241.5H506.409M472.027 241.5V275.5M506.409 241.5H539.809M506.409 241.5V275.5M539.809 241.5H573.209M539.809 241.5V275.5M573.209 241.5H606.609M573.209 241.5V275.5M606.609 241.5V275.5M0.5 275.5H34.8822M0.5 275.5V309.5M34.8822 275.5H68.282M34.8822 275.5V309.5M68.282 275.5H101.682M68.282 275.5V309.5M101.682 275.5H136.064M101.682 275.5V309.5M136.064 275.5H169.464M136.064 275.5V309.5M169.464 275.5H202.864M169.464 275.5V309.5M202.864 275.5H236.264M202.864 275.5V309.5M236.264 275.5H270.646M236.264 275.5V309.5M270.646 275.5H304.046M270.646 275.5V309.5M304.046 275.5H337.446M304.046 275.5V309.5M337.446 275.5H370.845M337.446 275.5V309.5M370.845 275.5H405.228M370.845 275.5V309.5M405.228 275.5H438.627M405.228 275.5V309.5M438.627 275.5H472.027M438.627 275.5V309.5M472.027 275.5H506.409M472.027 275.5V309.5M506.409 275.5H539.809M506.409 275.5V309.5M539.809 275.5H573.209M539.809 275.5V309.5M573.209 275.5H606.609M573.209 275.5V309.5M606.609 275.5V309.5M0.5 309.5H34.8822M0.5 309.5V343.5M34.8822 309.5H68.282M34.8822 309.5V343.5M68.282 309.5H101.682M68.282 309.5V343.5M101.682 309.5H136.064M101.682 309.5V343.5M136.064 309.5H169.464M136.064 309.5V343.5M169.464 309.5H202.864M169.464 309.5V343.5M202.864 309.5H236.264M202.864 309.5V343.5M236.264 309.5H270.646M236.264 309.5V343.5M270.646 309.5H304.046M270.646 309.5V343.5M304.046 309.5H337.446M304.046 309.5V343.5M337.446 309.5H370.845M337.446 309.5V343.5M370.845 309.5H405.228M370.845 309.5V343.5M405.228 309.5H438.627M405.228 309.5V343.5M438.627 309.5H472.027M438.627 309.5V343.5M472.027 309.5H506.409M472.027 309.5V343.5M506.409 309.5H539.809M506.409 309.5V343.5M539.809 309.5H573.209M539.809 309.5V343.5M573.209 309.5H606.609M573.209 309.5V343.5M606.609 309.5V343.5M0.5 343.5H34.8822M0.5 343.5V378.5M34.8822 343.5H68.282M34.8822 343.5V378.5M68.282 343.5H101.682M68.282 343.5V378.5M101.682 343.5H136.064M101.682 343.5V378.5M136.064 343.5H169.464M136.064 343.5V378.5M169.464 343.5H202.864M169.464 343.5V378.5M202.864 343.5H236.264M202.864 343.5V378.5M236.264 343.5H270.646M236.264 343.5V378.5M270.646 343.5H304.046M270.646 343.5V378.5M304.046 343.5H337.446M304.046 343.5V378.5M337.446 343.5H370.845M337.446 343.5V378.5M370.845 343.5H405.228M370.845 343.5V378.5M405.228 343.5H438.627M405.228 343.5V378.5M438.627 343.5H472.027M438.627 343.5V378.5M472.027 343.5H506.409M472.027 343.5V378.5M506.409 343.5H539.809M506.409 343.5V378.5M539.809 343.5H573.209M539.809 343.5V378.5M573.209 343.5H606.609M573.209 343.5V378.5M606.609 343.5V378.5M0.5 378.5H34.8822M0.5 378.5V412.5M34.8822 378.5H68.282M34.8822 378.5V412.5M68.282 378.5H101.682M68.282 378.5V412.5M101.682 378.5H136.064M101.682 378.5V412.5M136.064 378.5H169.464M136.064 378.5V412.5M169.464 378.5H202.864M169.464 378.5V412.5M202.864 378.5H236.264M202.864 378.5V412.5M236.264 378.5H270.646M236.264 378.5V412.5M270.646 378.5H304.046M270.646 378.5V412.5M304.046 378.5H337.446M304.046 378.5V412.5M337.446 378.5H370.845M337.446 378.5V412.5M370.845 378.5H405.228M370.845 378.5V412.5M405.228 378.5H438.627M405.228 378.5V412.5M438.627 378.5H472.027M438.627 378.5V412.5M472.027 378.5H506.409M472.027 378.5V412.5M506.409 378.5H539.809M506.409 378.5V412.5M539.809 378.5H573.209M539.809 378.5V412.5M573.209 378.5H606.609M573.209 378.5V412.5M606.609 378.5V412.5M0.5 412.5H34.8822M0.5 412.5V446.5M34.8822 412.5H68.282M34.8822 412.5V446.5M68.282 412.5H101.682M68.282 412.5V446.5M101.682 412.5H136.064M101.682 412.5V446.5M136.064 412.5H169.464M136.064 412.5V446.5M169.464 412.5H202.864M169.464 412.5V446.5M202.864 412.5H236.264M202.864 412.5V446.5M236.264 412.5H270.646M236.264 412.5V446.5M270.646 412.5H304.046M270.646 412.5V446.5M304.046 412.5H337.446M304.046 412.5V446.5M337.446 412.5H370.845M337.446 412.5V446.5M370.845 412.5H405.228M370.845 412.5V446.5M405.228 412.5H438.627M405.228 412.5V446.5M438.627 412.5H472.027M438.627 412.5V446.5M472.027 412.5H506.409M472.027 412.5V446.5M506.409 412.5H539.809M506.409 412.5V446.5M539.809 412.5H573.209M539.809 412.5V446.5M573.209 412.5H606.609M573.209 412.5V446.5M606.609 412.5V446.5M0.5 446.5H34.8822M0.5 446.5V481.5M34.8822 446.5H68.282M34.8822 446.5V481.5M68.282 446.5H101.682M68.282 446.5V481.5M101.682 446.5H136.064M101.682 446.5V481.5M136.064 446.5H169.464M136.064 446.5V481.5M169.464 446.5H202.864M169.464 446.5V481.5M202.864 446.5H236.264M202.864 446.5V481.5M236.264 446.5H270.646M236.264 446.5V481.5M270.646 446.5H304.046M270.646 446.5V481.5M304.046 446.5H337.446M304.046 446.5V481.5M337.446 446.5H370.845M337.446 446.5V481.5M370.845 446.5H405.228M370.845 446.5V481.5M405.228 446.5H438.627M405.228 446.5V481.5M438.627 446.5H472.027M438.627 446.5V481.5M472.027 446.5H506.409M472.027 446.5V481.5M506.409 446.5H539.809M506.409 446.5V481.5M539.809 446.5H573.209M539.809 446.5V481.5M573.209 446.5H606.609M573.209 446.5V481.5M606.609 446.5V481.5M0.5 481.5H34.8822M0.5 481.5V515.5M34.8822 481.5H68.282M34.8822 481.5V515.5M68.282 481.5H101.682M68.282 481.5V515.5M101.682 481.5H136.064M101.682 481.5V515.5M136.064 481.5H169.464M136.064 481.5V515.5M169.464 481.5H202.864M169.464 481.5V515.5M202.864 481.5H236.264M202.864 481.5V515.5M236.264 481.5H270.646M236.264 481.5V515.5M270.646 481.5H304.046M270.646 481.5V515.5M304.046 481.5H337.446M304.046 481.5V515.5M337.446 481.5H370.845M337.446 481.5V515.5M370.845 481.5H405.228M370.845 481.5V515.5M405.228 481.5H438.627M405.228 481.5V515.5M438.627 481.5H472.027M438.627 481.5V515.5M472.027 481.5H506.409M472.027 481.5V515.5M506.409 481.5H539.809M506.409 481.5V515.5M539.809 481.5H573.209M539.809 481.5V515.5M573.209 481.5H606.609M573.209 481.5V515.5M606.609 481.5V515.5M0.5 515.5H34.8822M0.5 515.5V549.5M34.8822 515.5H68.282M34.8822 515.5V549.5M68.282 515.5H101.682M68.282 515.5V549.5M101.682 515.5H136.064M101.682 515.5V549.5M136.064 515.5H169.464M136.064 515.5V549.5M169.464 515.5H202.864M169.464 515.5V549.5M202.864 515.5H236.264M202.864 515.5V549.5M236.264 515.5H270.646M236.264 515.5V549.5M270.646 515.5H304.046M270.646 515.5V549.5M304.046 515.5H337.446M304.046 515.5V549.5M337.446 515.5H370.845M337.446 515.5V549.5M370.845 515.5H405.228M370.845 515.5V549.5M405.228 515.5H438.627M405.228 515.5V549.5M438.627 515.5H472.027M438.627 515.5V549.5M472.027 515.5H506.409M472.027 515.5V549.5M506.409 515.5H539.809M506.409 515.5V549.5M539.809 515.5H573.209M539.809 515.5V549.5M573.209 515.5H606.609M573.209 515.5V549.5M606.609 515.5V549.5M0.5 549.5H34.8822M0.5 549.5V583.5M34.8822 549.5H68.282M34.8822 549.5V583.5M68.282 549.5H101.682M68.282 549.5V583.5M101.682 549.5H136.064M101.682 549.5V583.5M136.064 549.5H169.464M136.064 549.5V583.5M169.464 549.5H202.864M169.464 549.5V583.5M202.864 549.5H236.264M202.864 549.5V583.5M236.264 549.5H270.646M236.264 549.5V583.5M270.646 549.5H304.046M270.646 549.5V583.5M304.046 549.5H337.446M304.046 549.5V583.5M337.446 549.5H370.845M337.446 549.5V583.5M370.845 549.5H405.228M370.845 549.5V583.5M405.228 549.5H438.627M405.228 549.5V583.5M438.627 549.5H472.027M438.627 549.5V583.5M472.027 549.5H506.409M472.027 549.5V583.5M506.409 549.5H539.809M506.409 549.5V583.5M539.809 549.5H573.209M539.809 549.5V583.5M573.209 549.5H606.609M573.209 549.5V583.5M606.609 549.5V583.5M0.5 583.5H34.8822M0.5 583.5V618.5M34.8822 583.5H68.282M34.8822 583.5V618.5M68.282 583.5H101.682M68.282 583.5V618.5M101.682 583.5H136.064M101.682 583.5V618.5M136.064 583.5H169.464M136.064 583.5V618.5M169.464 583.5H202.864M169.464 583.5V618.5M202.864 583.5H236.264M202.864 583.5V618.5M236.264 583.5H270.646M236.264 583.5V618.5M270.646 583.5H304.046M270.646 583.5V618.5M304.046 583.5H337.446M304.046 583.5V618.5M337.446 583.5H370.845M337.446 583.5V618.5M370.845 583.5H405.228M370.845 583.5V618.5M405.228 583.5H438.627M405.228 583.5V618.5M438.627 583.5H472.027M438.627 583.5V618.5M472.027 583.5H506.409M472.027 583.5V618.5M506.409 583.5H539.809M506.409 583.5V618.5M539.809 583.5H573.209M539.809 583.5V618.5M573.209 583.5H606.609M573.209 583.5V618.5M606.609 583.5V618.5M0.5 618.5H34.8822M0.5 618.5V652.5M34.8822 618.5H68.282M34.8822 618.5V652.5M68.282 618.5H101.682M68.282 618.5V652.5M101.682 618.5H136.064M101.682 618.5V652.5M136.064 618.5H169.464M136.064 618.5V652.5M169.464 618.5H202.864M169.464 618.5V652.5M202.864 618.5H236.264M202.864 618.5V652.5M236.264 618.5H270.646M236.264 618.5V652.5M270.646 618.5H304.046M270.646 618.5V652.5M304.046 618.5H337.446M304.046 618.5V652.5M337.446 618.5H370.845M337.446 618.5V652.5M370.845 618.5H405.228M370.845 618.5V652.5M405.228 618.5H438.627M405.228 618.5V652.5M438.627 618.5H472.027M438.627 618.5V652.5M472.027 618.5H506.409M472.027 618.5V652.5M506.409 618.5H539.809M506.409 618.5V652.5M539.809 618.5H573.209M539.809 618.5V652.5M573.209 618.5H606.609M573.209 618.5V652.5M606.609 618.5V652.5M0.5 652.5H34.8822M0.5 652.5V686.5M34.8822 652.5H68.282M34.8822 652.5V686.5M68.282 652.5H101.682M68.282 652.5V686.5M101.682 652.5H136.064M101.682 652.5V686.5M136.064 652.5H169.464M136.064 652.5V686.5M169.464 652.5H202.864M169.464 652.5V686.5M202.864 652.5H236.264M202.864 652.5V686.5M236.264 652.5H270.646M236.264 652.5V686.5M270.646 652.5H304.046M270.646 652.5V686.5M304.046 652.5H337.446M304.046 652.5V686.5M337.446 652.5H370.845M337.446 652.5V686.5M370.845 652.5H405.228M370.845 652.5V686.5M405.228 652.5H438.627M405.228 652.5V686.5M438.627 652.5H472.027M438.627 652.5V686.5M472.027 652.5H506.409M472.027 652.5V686.5M506.409 652.5H539.809M506.409 652.5V686.5M539.809 652.5H573.209M539.809 652.5V686.5M573.209 652.5H606.609M573.209 652.5V686.5M606.609 652.5V686.5M0.5 686.5H34.8822M0.5 686.5V721.5M34.8822 686.5H68.282M34.8822 686.5V721.5M68.282 686.5H101.682M68.282 686.5V721.5M101.682 686.5H136.064M101.682 686.5V721.5M136.064 686.5H169.464M136.064 686.5V721.5M169.464 686.5H202.864M169.464 686.5V721.5M202.864 686.5H236.264M202.864 686.5V721.5M236.264 686.5H270.646M236.264 686.5V721.5M270.646 686.5H304.046M270.646 686.5V721.5M304.046 686.5H337.446M304.046 686.5V721.5M337.446 686.5H370.845M337.446 686.5V721.5M370.845 686.5H405.228M370.845 686.5V721.5M405.228 686.5H438.627M405.228 686.5V721.5M438.627 686.5H472.027M438.627 686.5V721.5M472.027 686.5H506.409M472.027 686.5V721.5M506.409 686.5H539.809M506.409 686.5V721.5M539.809 686.5H573.209M539.809 686.5V721.5M573.209 686.5H606.609M573.209 686.5V721.5M606.609 686.5V721.5M0.5 721.5H34.8822M0.5 721.5V755.5M34.8822 721.5H68.282M34.8822 721.5V755.5M68.282 721.5H101.682M68.282 721.5V755.5M101.682 721.5H136.064M101.682 721.5V755.5M136.064 721.5H169.464M136.064 721.5V755.5M169.464 721.5H202.864M169.464 721.5V755.5M202.864 721.5H236.264M202.864 721.5V755.5M236.264 721.5H270.646M236.264 721.5V755.5M270.646 721.5H304.046M270.646 721.5V755.5M304.046 721.5H337.446M304.046 721.5V755.5M337.446 721.5H370.845M337.446 721.5V755.5M370.845 721.5H405.228M370.845 721.5V755.5M405.228 721.5H438.627M405.228 721.5V755.5M438.627 721.5H472.027M438.627 721.5V755.5M472.027 721.5H506.409M472.027 721.5V755.5M506.409 721.5H539.809M506.409 721.5V755.5M539.809 721.5H573.209M539.809 721.5V755.5M573.209 721.5H606.609M573.209 721.5V755.5M606.609 721.5V755.5M0.5 755.5H34.8822M0.5 755.5V789.5M34.8822 755.5H68.282M34.8822 755.5V789.5M68.282 755.5H101.682M68.282 755.5V789.5M101.682 755.5H136.064M101.682 755.5V789.5M136.064 755.5H169.464M136.064 755.5V789.5M169.464 755.5H202.864M169.464 755.5V789.5M202.864 755.5H236.264M202.864 755.5V789.5M236.264 755.5H270.646M236.264 755.5V789.5M270.646 755.5H304.046M270.646 755.5V789.5M304.046 755.5H337.446M304.046 755.5V789.5M337.446 755.5H370.845M337.446 755.5V789.5M370.845 755.5H405.228M370.845 755.5V789.5M405.228 755.5H438.627M405.228 755.5V789.5M438.627 755.5H472.027M438.627 755.5V789.5M472.027 755.5H506.409M472.027 755.5V789.5M506.409 755.5H539.809M506.409 755.5V789.5M539.809 755.5H573.209M539.809 755.5V789.5M573.209 755.5H606.609M573.209 755.5V789.5M606.609 755.5V789.5M0.5 789.5H34.8822M0.5 789.5V824.5M34.8822 789.5H68.282M34.8822 789.5V824.5M68.282 789.5H101.682M68.282 789.5V824.5M101.682 789.5H136.064M101.682 789.5V824.5M136.064 789.5H169.464M136.064 789.5V824.5M169.464 789.5H202.864M169.464 789.5V824.5M202.864 789.5H236.264M202.864 789.5V824.5M236.264 789.5H270.646M236.264 789.5V824.5M270.646 789.5H304.046M270.646 789.5V824.5M304.046 789.5H337.446M304.046 789.5V824.5M337.446 789.5H370.845M337.446 789.5V824.5M370.845 789.5H405.228M370.845 789.5V824.5M405.228 789.5H438.627M405.228 789.5V824.5M438.627 789.5H472.027M438.627 789.5V824.5M472.027 789.5H506.409M472.027 789.5V824.5M506.409 789.5H539.809M506.409 789.5V824.5M539.809 789.5H573.209M539.809 789.5V824.5M573.209 789.5H606.609M573.209 789.5V824.5M606.609 789.5V824.5M0.5 824.5H34.8822M0.5 824.5V858.5M34.8822 824.5H68.282M34.8822 824.5V858.5M68.282 824.5H101.682M68.282 824.5V858.5M101.682 824.5H136.064M101.682 824.5V858.5M136.064 824.5H169.464M136.064 824.5V858.5M169.464 824.5H202.864M169.464 824.5V858.5M202.864 824.5H236.264M202.864 824.5V858.5M236.264 824.5H270.646M236.264 824.5V858.5M270.646 824.5H304.046M270.646 824.5V858.5M304.046 824.5H337.446M304.046 824.5V858.5M337.446 824.5H370.845M337.446 824.5V858.5M370.845 824.5H405.228M370.845 824.5V858.5M405.228 824.5H438.627M405.228 824.5V858.5M438.627 824.5H472.027M438.627 824.5V858.5M472.027 824.5H506.409M472.027 824.5V858.5M506.409 824.5H539.809M506.409 824.5V858.5M539.809 824.5H573.209M539.809 824.5V858.5M573.209 824.5H606.609M573.209 824.5V858.5M606.609 824.5V858.5M0.5 858.5H34.8822M0.5 858.5V892.5M34.8822 858.5H68.282M34.8822 858.5V892.5M68.282 858.5H101.682M68.282 858.5V892.5M101.682 858.5H136.064M101.682 858.5V892.5M136.064 858.5H169.464M136.064 858.5V892.5M169.464 858.5H202.864M169.464 858.5V892.5M202.864 858.5H236.264M202.864 858.5V892.5M236.264 858.5H270.646M236.264 858.5V892.5M270.646 858.5H304.046M270.646 858.5V892.5M304.046 858.5H337.446M304.046 858.5V892.5M337.446 858.5H370.845M337.446 858.5V892.5M370.845 858.5H405.228M370.845 858.5V892.5M405.228 858.5H438.627M405.228 858.5V892.5M438.627 858.5H472.027M438.627 858.5V892.5M472.027 858.5H506.409M472.027 858.5V892.5M506.409 858.5H539.809M506.409 858.5V892.5M539.809 858.5H573.209M539.809 858.5V892.5M573.209 858.5H606.609M573.209 858.5V892.5M606.609 858.5V892.5M0.5 892.5H34.8822M0.5 892.5V926.5M34.8822 892.5H68.282M34.8822 892.5V926.5M68.282 892.5H101.682M68.282 892.5V926.5M101.682 892.5H136.064M101.682 892.5V926.5M136.064 892.5H169.464M136.064 892.5V926.5M169.464 892.5H202.864M169.464 892.5V926.5M202.864 892.5H236.264M202.864 892.5V926.5M236.264 892.5H270.646M236.264 892.5V926.5M270.646 892.5H304.046M270.646 892.5V926.5M304.046 892.5H337.446M304.046 892.5V926.5M337.446 892.5H370.845M337.446 892.5V926.5M370.845 892.5H405.228M370.845 892.5V926.5M405.228 892.5H438.627M405.228 892.5V926.5M438.627 892.5H472.027M438.627 892.5V926.5M472.027 892.5H506.409M472.027 892.5V926.5M506.409 892.5H539.809M506.409 892.5V926.5M539.809 892.5H573.209M539.809 892.5V926.5M573.209 892.5H606.609M573.209 892.5V926.5M606.609 892.5V926.5M0.5 926.5H34.8822M0.5 926.5V961.5M34.8822 926.5H68.282M34.8822 926.5V961.5M68.282 926.5H101.682M68.282 926.5V961.5M101.682 926.5H136.064M101.682 926.5V961.5M136.064 926.5H169.464M136.064 926.5V961.5M169.464 926.5H202.864M169.464 926.5V961.5M202.864 926.5H236.264M202.864 926.5V961.5M236.264 926.5H270.646M236.264 926.5V961.5M270.646 926.5H304.046M270.646 926.5V961.5M304.046 926.5H337.446M304.046 926.5V961.5M337.446 926.5H370.845M337.446 926.5V961.5M370.845 926.5H405.228M370.845 926.5V961.5M405.228 926.5H438.627M405.228 926.5V961.5M438.627 926.5H472.027M438.627 926.5V961.5M472.027 926.5H506.409M472.027 926.5V961.5M506.409 926.5H539.809M506.409 926.5V961.5M539.809 926.5H573.209M539.809 926.5V961.5M573.209 926.5H606.609M573.209 926.5V961.5M606.609 926.5V961.5M0.5 961.5H34.8822M0.5 961.5V995.5M34.8822 961.5H68.282M34.8822 961.5V995.5M68.282 961.5H101.682M68.282 961.5V995.5M101.682 961.5H136.064M101.682 961.5V995.5M136.064 961.5H169.464M136.064 961.5V995.5M169.464 961.5H202.864M169.464 961.5V995.5M202.864 961.5H236.264M202.864 961.5V995.5M236.264 961.5H270.646M236.264 961.5V995.5M270.646 961.5H304.046M270.646 961.5V995.5M304.046 961.5H337.446M304.046 961.5V995.5M337.446 961.5H370.845M337.446 961.5V995.5M370.845 961.5H405.228M370.845 961.5V995.5M405.228 961.5H438.627M405.228 961.5V995.5M438.627 961.5H472.027M438.627 961.5V995.5M472.027 961.5H506.409M472.027 961.5V995.5M506.409 961.5H539.809M506.409 961.5V995.5M539.809 961.5H573.209M539.809 961.5V995.5M573.209 961.5H606.609M573.209 961.5V995.5M606.609 961.5V995.5M0.5 995.5H34.8822M0.5 995.5V1029.5M34.8822 995.5H68.282M34.8822 995.5V1029.5M68.282 995.5H101.682M68.282 995.5V1029.5M101.682 995.5H136.064M101.682 995.5V1029.5M136.064 995.5H169.464M136.064 995.5V1029.5M169.464 995.5H202.864M169.464 995.5V1029.5M202.864 995.5H236.264M202.864 995.5V1029.5M236.264 995.5H270.646M236.264 995.5V1029.5M270.646 995.5H304.046M270.646 995.5V1029.5M304.046 995.5H337.446M304.046 995.5V1029.5M337.446 995.5H370.845M337.446 995.5V1029.5M370.845 995.5H405.228M370.845 995.5V1029.5M405.228 995.5H438.627M405.228 995.5V1029.5M438.627 995.5H472.027M438.627 995.5V1029.5M472.027 995.5H506.409M472.027 995.5V1029.5M506.409 995.5H539.809M506.409 995.5V1029.5M539.809 995.5H573.209M539.809 995.5V1029.5M573.209 995.5H606.609M573.209 995.5V1029.5M606.609 995.5V1029.5M0.5 1029.5H34.8822M0.5 1029.5V1064.5M34.8822 1029.5H68.282M34.8822 1029.5V1064.5M68.282 1029.5H101.682M68.282 1029.5V1064.5M101.682 1029.5H136.064M101.682 1029.5V1064.5M136.064 1029.5H169.464M136.064 1029.5V1064.5M169.464 1029.5H202.864M169.464 1029.5V1064.5M202.864 1029.5H236.264M202.864 1029.5V1064.5M236.264 1029.5H270.646M236.264 1029.5V1064.5M270.646 1029.5H304.046M270.646 1029.5V1064.5M304.046 1029.5H337.446M304.046 1029.5V1064.5M337.446 1029.5H370.845M337.446 1029.5V1064.5M370.845 1029.5H405.228M370.845 1029.5V1064.5M405.228 1029.5H438.627M405.228 1029.5V1064.5M438.627 1029.5H472.027M438.627 1029.5V1064.5M472.027 1029.5H506.409M472.027 1029.5V1064.5M506.409 1029.5H539.809M506.409 1029.5V1064.5M539.809 1029.5H573.209M539.809 1029.5V1064.5M573.209 1029.5H606.609M573.209 1029.5V1064.5M606.609 1029.5V1064.5M0.5 1064.5H34.8822M0.5 1064.5V1098.5M34.8822 1064.5H68.282M34.8822 1064.5V1098.5M68.282 1064.5H101.682M68.282 1064.5V1098.5M101.682 1064.5H136.064M101.682 1064.5V1098.5M136.064 1064.5H169.464M136.064 1064.5V1098.5M169.464 1064.5H202.864M169.464 1064.5V1098.5M202.864 1064.5H236.264M202.864 1064.5V1098.5M236.264 1064.5H270.646M236.264 1064.5V1098.5M270.646 1064.5H304.046M270.646 1064.5V1098.5M304.046 1064.5H337.446M304.046 1064.5V1098.5M337.446 1064.5H370.845M337.446 1064.5V1098.5M370.845 1064.5H405.228M370.845 1064.5V1098.5M405.228 1064.5H438.627M405.228 1064.5V1098.5M438.627 1064.5H472.027M438.627 1064.5V1098.5M472.027 1064.5H506.409M472.027 1064.5V1098.5M506.409 1064.5H539.809M506.409 1064.5V1098.5M539.809 1064.5H573.209M539.809 1064.5V1098.5M573.209 1064.5H606.609M573.209 1064.5V1098.5M606.609 1064.5V1098.5M0.5 1098.5H34.8822M0.5 1098.5V1132.5M34.8822 1098.5H68.282M34.8822 1098.5V1132.5M68.282 1098.5H101.682M68.282 1098.5V1132.5M101.682 1098.5H136.064M101.682 1098.5V1132.5M136.064 1098.5H169.464M136.064 1098.5V1132.5M169.464 1098.5H202.864M169.464 1098.5V1132.5M202.864 1098.5H236.264M202.864 1098.5V1132.5M236.264 1098.5H270.646M236.264 1098.5V1132.5M270.646 1098.5H304.046M270.646 1098.5V1132.5M304.046 1098.5H337.446M304.046 1098.5V1132.5M337.446 1098.5H370.845M337.446 1098.5V1132.5M370.845 1098.5H405.228M370.845 1098.5V1132.5M405.228 1098.5H438.627M405.228 1098.5V1132.5M438.627 1098.5H472.027M438.627 1098.5V1132.5M472.027 1098.5H506.409M472.027 1098.5V1132.5M506.409 1098.5H539.809M506.409 1098.5V1132.5M539.809 1098.5H573.209M539.809 1098.5V1132.5M573.209 1098.5H606.609M573.209 1098.5V1132.5M606.609 1098.5V1132.5M0.5 1132.5H34.8822M0.5 1132.5V1167.5M34.8822 1132.5H68.282M34.8822 1132.5V1167.5M68.282 1132.5H101.682M68.282 1132.5V1167.5M101.682 1132.5H136.064M101.682 1132.5V1167.5M136.064 1132.5H169.464M136.064 1132.5V1167.5M169.464 1132.5H202.864M169.464 1132.5V1167.5M202.864 1132.5H236.264M202.864 1132.5V1167.5M236.264 1132.5H270.646M236.264 1132.5V1167.5M270.646 1132.5H304.046M270.646 1132.5V1167.5M304.046 1132.5H337.446M304.046 1132.5V1167.5M337.446 1132.5H370.845M337.446 1132.5V1167.5M370.845 1132.5H405.228M370.845 1132.5V1167.5M405.228 1132.5H438.627M405.228 1132.5V1167.5M438.627 1132.5H472.027M438.627 1132.5V1167.5M472.027 1132.5H506.409M472.027 1132.5V1167.5M506.409 1132.5H539.809M506.409 1132.5V1167.5M539.809 1132.5H573.209M539.809 1132.5V1167.5M573.209 1132.5H606.609M573.209 1132.5V1167.5M606.609 1132.5V1167.5M0.5 1167.5H34.8822M0.5 1167.5V1201.5M34.8822 1167.5H68.282M34.8822 1167.5V1201.5M68.282 1167.5H101.682M68.282 1167.5V1201.5M101.682 1167.5H136.064M101.682 1167.5V1201.5M136.064 1167.5H169.464M136.064 1167.5V1201.5M169.464 1167.5H202.864M169.464 1167.5V1201.5M202.864 1167.5H236.264M202.864 1167.5V1201.5M236.264 1167.5H270.646M236.264 1167.5V1201.5M270.646 1167.5H304.046M270.646 1167.5V1201.5M304.046 1167.5H337.446M304.046 1167.5V1201.5M337.446 1167.5H370.845M337.446 1167.5V1201.5M370.845 1167.5H405.228M370.845 1167.5V1201.5M405.228 1167.5H438.627M405.228 1167.5V1201.5M438.627 1167.5H472.027M438.627 1167.5V1201.5M472.027 1167.5H506.409M472.027 1167.5V1201.5M506.409 1167.5H539.809M506.409 1167.5V1201.5M539.809 1167.5H573.209M539.809 1167.5V1201.5M573.209 1167.5H606.609M573.209 1167.5V1201.5M606.609 1167.5V1201.5M0.5 1201.5H34.8822M0.5 1201.5V1235.5M34.8822 1201.5H68.282M34.8822 1201.5V1235.5M68.282 1201.5H101.682M68.282 1201.5V1235.5M101.682 1201.5H136.064M101.682 1201.5V1235.5M136.064 1201.5H169.464M136.064 1201.5V1235.5M169.464 1201.5H202.864M169.464 1201.5V1235.5M202.864 1201.5H236.264M202.864 1201.5V1235.5M236.264 1201.5H270.646M236.264 1201.5V1235.5M270.646 1201.5H304.046M270.646 1201.5V1235.5M304.046 1201.5H337.446M304.046 1201.5V1235.5M337.446 1201.5H370.845M337.446 1201.5V1235.5M370.845 1201.5H405.228M370.845 1201.5V1235.5M405.228 1201.5H438.627M405.228 1201.5V1235.5M438.627 1201.5H472.027M438.627 1201.5V1235.5M472.027 1201.5H506.409M472.027 1201.5V1235.5M506.409 1201.5H539.809M506.409 1201.5V1235.5M539.809 1201.5H573.209M539.809 1201.5V1235.5M573.209 1201.5H606.609M573.209 1201.5V1235.5M606.609 1201.5V1235.5M0.5 1235.5H34.8822M0.5 1235.5V1269.5H34.8822M34.8822 1235.5H68.282M34.8822 1235.5V1269.5M68.282 1235.5H101.682M68.282 1235.5V1269.5M101.682 1235.5H136.064M101.682 1235.5V1269.5M136.064 1235.5H169.464M136.064 1235.5V1269.5M169.464 1235.5H202.864M169.464 1235.5V1269.5M202.864 1235.5H236.264M202.864 1235.5V1269.5M236.264 1235.5H270.646M236.264 1235.5V1269.5M270.646 1235.5H304.046M270.646 1235.5V1269.5M304.046 1235.5H337.446M304.046 1235.5V1269.5M337.446 1235.5H370.845M337.446 1235.5V1269.5M370.845 1235.5H405.228M370.845 1235.5V1269.5M405.228 1235.5H438.627M405.228 1235.5V1269.5M438.627 1235.5H472.027M438.627 1235.5V1269.5M472.027 1235.5H506.409M472.027 1235.5V1269.5M506.409 1235.5H539.809M506.409 1235.5V1269.5M539.809 1235.5H573.209M539.809 1235.5V1269.5M573.209 1235.5H606.609M573.209 1235.5V1269.5M606.609 1235.5V1269.5M34.8822 1269.5H68.282M68.282 1269.5H101.682M101.682 1269.5H136.064M136.064 1269.5H169.464M169.464 1269.5H202.864M202.864 1269.5H236.264M236.264 1269.5H270.646M270.646 1269.5H304.046M304.046 1269.5H337.446M337.446 1269.5H370.845M370.845 1269.5H405.228M405.228 1269.5H438.627M438.627 1269.5H472.027M472.027 1269.5H506.409M506.409 1269.5H539.809M539.809 1269.5H573.209M573.209 1269.5H606.609" stroke="url(#paint0_radial_2023_356)"/>
<defs>
<radialGradient id="paint0_radial_2023_356" cx="0" cy="0" r="1" gradientTransform="matrix(163.07 475 -479.117 170.448 592.856 160.5)" gradientUnits="userSpaceOnUse">
<stop stop-opacity="0"/>
<stop offset="0.1" stop-color="white" stop-opacity="0.15"/>
<stop offset="1" stop-opacity="0"/>
</radialGradient>
</defs>
</svg>
